# xmcd CD database file
#
# Track frame offsets:
#        150
#        23240
#        41587
#        60465
#        72925
#        88692
#        106235
#        124570
#        146857
#        162210
#        184445
#        197157
#        211125
#        224497
#        238250
#        259742
#        274125
#        289057
#
# Disc length: 4118 seconds
#
# Revision: 0
# Processed by: cddbd v1.5.2PL0 Copyright (c) Steve Scherf et al.
# Submitted via: CUERipper 2.1.4
#
DISCID=19101412
DTITLE=奚秀蘭 - 奚秀蘭•經典金曲18首•第二輯
DYEAR=1998
DGENRE=Pop-Folk
TTITLE0=我的祖國
TTITLE1=誰不說俺家鄉好
TTITLE2=草原之夜
TTITLE3=洪湖水浪打浪
TTITLE4=珊瑚頌
TTITLE5=九九艷陽天
TTITLE6=送別
TTITLE7=妹妹找哥淚花流
TTITLE8=蝴蝶泉邊
TTITLE9=緬桂花開十里香
TTITLE10=南泥灣
TTITLE11=茉莉花
TTITLE12=紅豆詞
TTITLE13=送我一枝玫瑰花
TTITLE14=酒干倘賣無
TTITLE15=我的中國心
TTITLE16=龍的傳人
TTITLE17=望郎歸
EXTD=
EXTT0=
EXTT1=
EXTT2=
EXTT3=
EXTT4=
EXTT5=
EXTT6=
EXTT7=
EXTT8=
EXTT9=
EXTT10=
EXTT11=
EXTT12=
EXTT13=
EXTT14=
EXTT15=
EXTT16=
EXTT17=
PLAYORDER=
